PathFileType	4	(X/Y/Z)	/Users/itak/Documents/Research/Walk-IL/dataset/trc/00093_00006.trc
DataRate	CameraRate	NumFrames	NumMarkers	Units	OrigDataRate	OrigDataStartFrame	OrigNumFrames
100.000000	100.000000	4	53	mm	100.000000	118	475
Frame#	Time	RPSI			LPSI			L3			STRN			T10			C7			CLAV			RBAK			LBAK			LSHO			LUPA			LAEL			LAOL			LWTS			LWPS			LFRA			LIFD			LHPS			LHTS			RSHO			RUPA			RAEL			RAOL			RWTS			RWPS			RFRA			RIFD			RHTS			RHPS			RBHD			LFHD			RFHD			LBHD			LHIP			RHIP			RASI			LASI			LKNE			LTHI			LANK			LTIP			LTOE			LMT1			LMT5			LHEE			RKNE			RTHI			RANK			RTIP			RTOE			RMT1			RMT5			RHEE			
		X1	Y1	Z1	X2	Y2	Z2	X3	Y3	Z3	X4	Y4	Z4	X5	Y5	Z5	X6	Y6	Z6	X7	Y7	Z7	X8	Y8	Z8	X9	Y9	Z9	X10	Y10	Z10	X11	Y11	Z11	X12	Y12	Z12	X13	Y13	Z13	X14	Y14	Z14	X15	Y15	Z15	X16	Y16	Z16	X17	Y17	Z17	X18	Y18	Z18	X19	Y19	Z19	X20	Y20	Z20	X21	Y21	Z21	X22	Y22	Z22	X23	Y23	Z23	X24	Y24	Z24	X25	Y25	Z25	X26	Y26	Z26	X27	Y27	Z27	X28	Y28	Z28	X29	Y29	Z29	X30	Y30	Z30	X31	Y31	Z31	X32	Y32	Z32	X33	Y33	Z33	X34	Y34	Z34	X35	Y35	Z35	X36	Y36	Z36	X37	Y37	Z37	X38	Y38	Z38	X39	Y39	Z39	X40	Y40	Z40	X41	Y41	Z41	X42	Y42	Z42	X43	Y43	Z43	X44	Y44	Z44	X45	Y45	Z45	X46	Y46	Z46	X47	Y47	Z47	X48	Y48	Z48	X49	Y49	Z49	X50	Y50	Z50	X51	Y51	Z51	X52	Y52	Z52	X53	Y53	Z53	

119	1.18	-1351.15625	1040.59130859375	102.9851760864258	-1362.464599609375	1030.67822265625	-72.13984680175781	-1351.628784179688	1087.904052734375	10.16386032104492	-1101.68310546875	1283.9306640625	13.71465969085693	-1369.6015625	1222.8583984375	9.130130767822266	-1307.512329101562	1488.945434570312	5.709366321563721	-1129.745727539062	1398.869506835938	11.18826866149902	-1372.094360351562	1350.878784179688	81.88497161865234	-1327.381958007812	1451.01513671875	-96.46435546875	-1221.36962890625	1452.498168945312	-166.8573608398438	-1239.3251953125	1325.3134765625	-243.54150390625	-1223.39404296875	1111.151123046875	-265.2609252929688	-1288.690185546875	1097.4609375	-181.0191192626953	-1146.992431640625	865.2249145507812	-208.7887725830078	-1203.542236328125	860.0369262695312	-270.3087463378906	-1208.19873046875	1002.101379394531	-275.6456298828125	-1154.656494140625	679.6649780273438	-189.0536956787109	-1177.3291015625	776.5714721679688	-267.1142883300781	-1130.683471679688	781.3077392578125	-213.2293243408203	-1247.480346679688	1451.890380859375	184.5121154785156	-1257.120727539062	1380.5283203125	249.0207061767578	-1281.0654296875	1112.759033203125	270.3819274902344	-1268.622680664062	1093.151245117188	174.6922302246094	-1141.9921875	861.1083984375	231.3843994140625	-1211.823852539062	847.1296997070312	283.0204772949219	-1267.64501953125	1034.4873046875	276.00341796875	-1144.443237304688	676.5606689453125	210.7385711669922	-1117.246337890625	760.665771484375	232.8010101318359	-1173.588134765625	758.3605346679688	286.9713745117188	-1281.064331054688	1652.06298828125	67.69669342041016	-1081.362915039062	1706.639282226562	-13.06087112426758	-1120.217163085938	1694.973022460938	106.2741775512695	-1248.762329101562	1672.033447265625	-65.37236785888672	-1259.910034179688	964.0650634765625	-162.1906890869141	-1286.593872070312	967.1314086914062	180.27734375	-1161.920654296875	980.0127563476562	160.0261535644531	-1147.015869140625	971.6986083984375	-109.6160583496094	-1191.394653320312	499.3109436035156	-99.6629638671875	-1221.682006835938	638.8101806640625	-140.1504058837891	-1339.652587890625	53.03903198242188	-113.7318267822266	-1272.098754882812	262.9793090820312	-118.7406539916992	-1135.252563476562	48.78628540039062	-99.61247253417969	-1183.833862304688	47.71568298339844	-49.05679702758789	-1236.145141601562	44.85417175292969	-148.4541778564453	-1393.641357421875	51.06877517700195	-38.52121734619141	-1231.337158203125	519.9300537109375	168.4540405273438	-1210.9462890625	792.6776733398438	192.6131744384766	-1327.220703125	46.71399307250977	170.5392913818359	-1258.115600585938	400.8826904296875	175.2311248779297	-1110.098999023438	43.83496475219727	138.1488952636719	-1171.400634765625	48.09560775756836	96.60255432128906	-1203.826293945312	50.2785758972168	189.3079071044922	-1373.697387695312	45.73415756225586	112.6327133178711	
120	1.19	-1350.290893554688	1040.619384765625	102.0929336547852	-1362.215087890625	1030.626220703125	-73.02264404296875	-1350.986083984375	1088.06787109375	9.265477180480957	-1100.649658203125	1283.801147460938	12.12180519104004	-1368.71875	1223.052001953125	8.181151390075684	-1306.228881835938	1489.01513671875	4.771008968353271	-1128.573852539062	1398.766845703125	9.745408058166504	-1370.901611328125	1351.020874023438	81.04311370849609	-1326.359130859375	1451.190307617188	-97.33883666992188	-1220.60302734375	1452.664306640625	-168.0478057861328	-1239.129760742188	1325.589233398438	-244.9041290283203	-1223.875122070312	1111.390502929688	-266.8222045898438	-1288.92431640625	1097.80810546875	-182.3645935058594	-1148.120971679688	865.2069702148438	-210.7704772949219	-1204.733642578125	860.207275390625	-272.1392211914062	-1209.014404296875	1002.303588867188	-277.3553771972656	-1156.227294921875	679.633056640625	-191.2029876708984	-1178.793090820312	776.6763305664062	-269.1113586425781	-1132.185913085938	781.0848388671875	-215.4795227050781	-1245.962036132812	1451.817504882812	183.368408203125	-1255.557250976562	1380.398803710938	247.7715454101562	-1280.3466796875	1112.892944335938	269.4636535644531	-1267.490600585938	1093.111450195312	173.8260498046875	-1141.35498046875	861.1160278320312	230.9811401367188	-1211.329711914062	847.1761474609375	282.423828125	-1267.031127929688	1034.539428710938	275.2335815429688	-1143.965209960938	676.4144287109375	210.338623046875	-1116.541015625	760.660400390625	232.4857788085938	-1173.182739257812	758.2948608398438	286.5158386230469	-1279.724731445312	1652.020751953125	66.62941741943359	-1079.843627929688	1706.60107421875	-13.70377159118652	-1119.032836914062	1694.82177734375	105.5153579711914	-1247.173583984375	1672.074340820312	-66.46978759765625	-1260.00439453125	963.9674682617188	-163.5401763916016	-1285.607299804688	967.1343994140625	179.2541961669922	-1161.025146484375	979.996337890625	158.5279846191406	-1146.956298828125	971.5701293945312	-111.0915832519531	-1191.4443359375	499.1982116699219	-100.3338928222656	-1221.730712890625	638.6954956054688	-141.0156555175781	-1339.787841796875	52.9254150390625	-113.8968505859375	-1272.121459960938	262.8285522460938	-119.1310348510742	-1135.393310546875	48.86734771728516	-99.60943603515625	-1183.913208007812	47.73962783813477	-49.07502365112305	-1236.306030273438	44.79482650756836	-148.5602874755859	-1393.744140625	50.92552947998047	-38.69622421264648	-1229.185302734375	519.8222045898438	167.6735076904297	-1209.62548828125	792.7311401367188	191.4821472167969	-1327.266479492188	46.66475677490234	170.5768737792969	-1256.25830078125	400.6897888183594	174.678955078125	-1110.19287109375	43.89635467529297	138.1803741455078	-1171.429809570312	48.11781311035156	96.62883758544922	-1203.866943359375	50.22595596313477	189.3912963867188	-1373.746459960938	45.66979217529297	112.6589126586914	
121	1.2	-1349.413452148438	1040.638549804688	101.1894454956055	-1361.9755859375	1030.557250976562	-73.91309356689453	-1350.32568359375	1088.227416992188	8.343891143798828	-1099.587890625	1283.6630859375	10.48421859741211	-1367.804809570312	1223.25439453125	7.183237075805664	-1304.903564453125	1489.081909179688	3.775279998779297	-1127.365112304688	1398.661499023438	8.259495735168457	-1369.685546875	1351.16015625	80.11891174316406	-1325.2861328125	1451.369018554688	-98.27999877929688	-1219.775024414062	1452.842895507812	-169.2897338867188	-1238.85498046875	1325.861328125	-246.3118591308594	-1224.235473632812	1111.629760742188	-268.3646240234375	-1289.050415039062	1098.156616210938	-183.7017517089844	-1149.127685546875	865.197265625	-212.6917266845703	-1205.80908203125	860.3806762695312	-273.9246215820312	-1209.714111328125	1002.501098632812	-279.0318603515625	-1157.75146484375	679.6243896484375	-193.3142242431641	-1180.1220703125	776.7794189453125	-271.0445556640625	-1133.51806640625	780.9202270507812	-217.6210479736328	-1244.4296875	1451.730102539062	182.1707611083984	-1254.017700195312	1380.253662109375	246.4437255859375	-1279.6640625	1113.031372070312	268.5027465820312	-1266.369140625	1093.06494140625	172.9109039306641	-1140.667724609375	861.15576171875	230.585205078125	-1210.834838867188	847.2295532226562	281.7943725585938	-1266.472778320312	1034.5869140625	274.4148254394531	-1143.389404296875	676.3422241210938	209.9376220703125	-1115.790283203125	760.6907958984375	232.1562347412109	-1172.716918945312	758.2506103515625	286.0260314941406	-1278.376342773438	1651.994140625	65.47627258300781	-1078.254760742188	1706.560913085938	-14.32308769226074	-1117.825439453125	1694.658325195312	104.7763442993164	-1245.479125976562	1672.12646484375	-67.59831237792969	-1260.098266601562	963.84521484375	-164.9039611816406	-1284.576049804688	967.13427734375	178.2408752441406	-1160.094482421875	980.00341796875	156.9787750244141	-1146.929809570312	971.4151611328125	-112.6116180419922	-1191.519287109375	499.0741577148438	-101.0502777099609	-1221.828857421875	638.593505859375	-141.9379119873047	-1339.936157226562	52.80256652832031	-114.0848388671875	-1272.14306640625	262.6556091308594	-119.5595703125	-1135.545166015625	48.93774795532227	-99.61045837402344	-1184.010375976562	47.76099014282227	-49.09907531738281	-1236.467163085938	44.72756958007812	-148.6743316650391	-1393.872924804688	50.77334594726562	-38.91029739379883	-1226.514282226562	519.6798095703125	166.8674163818359	-1208.126220703125	792.7786865234375	190.2598571777344	-1327.3173828125	46.60433959960938	170.6107940673828	-1253.929809570312	400.4325561523438	174.1382293701172	-1110.285888671875	43.95027923583984	138.2108917236328	-1171.459106445312	48.13273620605469	96.66031646728516	-1203.906127929688	50.16109848022461	189.4728546142578	-1373.801147460938	45.64435958862305	112.692512512207	
122	1.21	-1348.546997070312	1040.643310546875	100.2794647216797	-1361.744750976562	1030.475341796875	-74.80184173583984	-1349.66162109375	1088.378540039062	7.397329807281494	-1098.499877929688	1283.508422851562	8.806174278259277	-1366.8671875	1223.463500976562	6.132081985473633	-1303.536376953125	1489.147338867188	2.717514753341675	-1126.119018554688	1398.5458984375	6.736472129821777	-1368.4453125	1351.294311523438	79.10475921630859	-1324.15869140625	1451.548583984375	-99.29411315917969	-1218.871704101562	1453.03173828125	-170.5806579589844	-1238.485229492188	1326.128173828125	-247.761962890625	-1224.4619140625	1111.869506835938	-269.8824157714844	-1289.056640625	1098.505981445312	-185.0259399414062	-1150.00439453125	865.1849975585938	-214.5512084960938	-1206.768310546875	860.5587768554688	-275.664306640625	-1210.2861328125	1002.694152832031	-280.6693725585938	-1159.220092773438	679.6328125	-195.3845977783203	-1181.31005859375	776.880859375	-272.9164123535156	-1134.681274414062	780.7933349609375	-219.6589813232422	-1242.886840820312	1451.625732421875	180.9202728271484	-1252.512451171875	1380.0947265625	245.0422821044922	-1279.024536132812	1113.169189453125	267.4975891113281	-1265.275268554688	1093.006469726562	171.9465942382812	-1139.939208984375	861.2214965820312	230.1977386474609	-1210.331420898438	847.2850952148438	281.1426086425781	-1265.970092773438	1034.625122070312	273.5509033203125	-1142.6748046875	676.3604736328125	209.5423889160156	-1115.011352539062	760.7478637695312	231.8181762695312	-1172.182983398438	758.2395629882812	285.5106201171875	-1277.026977539062	1651.976928710938	64.22834014892578	-1076.593505859375	1706.509521484375	-14.91149234771729	-1116.592651367188	1694.471313476562	104.0594024658203	-1243.676025390625	1672.185913085938	-68.74905395507812	-1260.197631835938	963.6994018554688	-166.2572937011719	-1283.518798828125	967.123291015625	177.2538299560547	-1159.143920898438	980.0296020507812	155.3950347900391	-1146.922607421875	971.238037109375	-114.1575317382812	-1191.627075195312	498.9388122558594	-101.8295516967773	-1221.963134765625	638.497802734375	-142.9124298095703	-1340.100219726562	52.67134094238281	-114.2938842773438	-1272.165893554688	262.4595642089844	-120.0275955200195	-1135.709350585938	48.99647903442383	-99.62276458740234	-1184.129516601562	47.78276062011719	-49.13474655151367	-1236.62158203125	44.65146255493164	-148.7971496582031	-1394.033203125	50.62466049194336	-39.16054916381836	-1223.201049804688	519.5099487304688	166.0335693359375	-1206.417114257812	792.810546875	188.9287719726562	-1327.365844726562	46.54437637329102	170.6359405517578	-1251.016967773438	400.1024780273438	173.6181945800781	-1110.378784179688	43.99220657348633	138.2434692382812	-1171.488037109375	48.13982391357422	96.69869232177734	-1203.944458007812	50.08335876464844	189.5515594482422	-1373.856811523438	45.70712661743164	112.7255325317383	
